<svg xmlns="http://www.w3.org/2000/svg"><symbol id="no-kill" viewBox="0 0 256 256"><path d="M110.8 126.8l-3.3-2.9-6.4-5.6-6.3-5.3-3.3-2.8c-.9-.7-1.9-1.6-3.1-1.4a.8.8 0 0 0-.5.7c-.1 1.1.9 2 1.7 2.8l3.1 3 6.1 5.8 6.1 5.6 3.2 3c1.1 1 2 1.8 3.6 1.6a1.5 1.5 0 0 0 1.1-1.3c0-1.5-1-2.4-2-3.2z"/><path d="M112 107.5a1.4 1.4 0 0 0-1.4-1.1c-1.4-.2-2.3 1.1-3.1 2l-2 2.8-4.3 6-3.9 5.9c-.6 1-1.2 2-1.7 3s-1.2 2-.9 3.1.4.5.7.5a4.6 4.6 0 0 0 2.3-1.8l2.2-2.9 4.3-5.7c1.4-1.9 2.8-3.7 4.3-5.5l2.2-2.9c.8-1 1.7-2.1 1.3-3.4zm46.9 10.2c-1.1-2-3.6-2.9-5.5-4.1s-3.9-2.4-5.7-3.7-3.7-2.5-5.4-3.8l-5.7-4c-.4-.2-.8.3-.5.6a43.2 43.2 0 0 0 4.5 5.1c1.7 1.6 3.5 3.2 5.3 4.6s3.6 2.9 5.4 4.2 3.9 3.3 6.2 3.4a1.6 1.6 0 0 0 1.4-2.3z"/><path d="M156.2 96.7a5.3 5.3 0 0 0-2.8 1.8l-2.4 2.6-4.5 5.2-4.3 5.1a30.1 30.1 0 0 0-2.2 2.8l-1 1.2a14 14 0 0 1-.9 1.7c-.3.6.4 1.4.9 1s1-.5 1.4-.9a6.9 6.9 0 0 0 1.3-1.1l2.5-2.3 4.9-5 4.8-5c1.5-1.6 3.8-3.4 4-5.7s-.9-1.6-1.7-1.4zM137 139.4c-.6-1.2-1.6-1.2-2.7-1.3h-2.5a23.5 23.5 0 0 0-11.2 3 1.7 1.7 0 0 0-.6 2.2l.2.2a.7.7 0 0 0-.1.5c.2 6.2 8.2 9.9 13.3 6.7a9.8 9.8 0 0 0 4.2-7.2 6.9 6.9 0 0 0-.6-4.1zm-3.1 3.9c0 .2-.1.3-.1.5a6.4 6.4 0 0 0-.2.7 1 1 0 0 0-.1.3l-.6 1-.2.2h-.1c-.1.2-.3.3-.4.4l-.5.5h-.2l-.7.4h-2.9l-.6-.2h-.3l-.6-.4-.5-.3h-.3c-.1-.2-.3-.3-.5-.5l-.3-.4-.2-.4-.3-.6c-.1-.1-.3-.6-.2-.3s-.1-.5-.2-.7l-.2-.3a23.7 23.7 0 0 1 10.2-1.5.6.6 0 0 1 .1.4v1zm37.1 20.9c-2.8-2.5-6.4-3.9-9.9-5.1a68.2 68.2 0 0 0-12.4-3.1 75.5 75.5 0 0 0-25.1.2c-8.8 1.7-18.7 4.6-25.6 10.7-.9.8.3 2.5 1.4 2 3.3-1.3 6.4-2.9 9.7-4.2a60.7 60.7 0 0 1 10.2-3.3 71.1 71.1 0 0 1 21.1-2 45.5 45.5 0 0 1 5.2.4 1.7 1.7 0 0 0 0 1 27.1 27.1 0 0 0 6.6 10.7c3 3.1 7 6 11.3 6.8s8.3-.7 10.1-4.4.1-7.2-2.6-9.7zm-3.8 9.9c-4 1.1-8.2-2.2-11-4.7a32.4 32.4 0 0 1-6.5-9 59.9 59.9 0 0 1 11 3.1c2.9 1 6 2.2 8.1 4.6s1.4 5.1-1.6 6z"/><path d="M181.5 110.1c-2.2-3.2-4.5-6.3-6.8-9.3s-5 .5-3.5 2.5c8.4 11.5 17.3 23.9 19.7 38.3s-3.6 27.1-13.6 36.5-24.8 14.6-38.9 16.5-30.2.5-42.7-7.5a43.1 43.1 0 0 1-13.6-13.6 42.4 42.4 0 0 1-5.6-20.3c-.3-7.9.8-15.8.5-23.7s-2.5-13.8-9.2-16.2-11.6 3.1-16.1 6.9c-2.3 2-6.2 4.4-9.2 2.6s-2.5-4.9-2.1-7.4c.9-5.9 4.7-11.5 9-15.5A31.3 31.3 0 0 1 66.2 92c3.9-.6 7.9-.7 11.8-1.6a31.6 31.6 0 0 0 9.6-4.2c5.9-3.7 11.2-8 17.8-10.8a57.7 57.7 0 0 1 39.7-1.3 63.6 63.6 0 0 1 9.3 4c1.4.7 2.7-1.4 1.3-2.2-12.1-7.6-27.1-9.8-41-7.1A56.3 56.3 0 0 0 95 76.7c-6.5 4.1-12.3 9.2-20.1 10.6-4.1.7-8.2.7-12.3 1.6a35.3 35.3 0 0 0-8.9 3.3A35.8 35.8 0 0 0 40 105.8c-2.8 5-5.4 12.4-2 17.8s12.8 2.5 17.4-1.7c2.3-2.2 4.9-5.1 8.3-5.6s6.2 1.9 7.8 4.6 2 7.9 1.8 11.8-.4 8.2-.6 12.3c-.3 8.1-.1 16.4 2.8 24.1A43.2 43.2 0 0 0 87 185.6c11.4 10.2 26.6 14.3 41.7 14.1s31.4-4.1 44.3-12.7 21.2-20.5 22.8-35.1-5.8-29.6-14.3-41.8z"/><path d="M197.1 72.4a40.5 40.5 0 0 0-11-5 37.3 37.3 0 0 0-11.9-2.1 25.6 25.6 0 0 0-11.9 2.6c-3.3 1.7-7.1 4.5-8 8.2a.9.9 0 0 0 1.5 1c2.6-2.4 4.7-4.9 8-6.5a24.2 24.2 0 0 1 10.6-2.1 40.2 40.2 0 0 1 11.9 2.6c3.7 1.3 7.4 2.9 10.3 5.5s4.9 5.6 5.1 9.3-1.4 6.4-4.2 7.8-8-.5-11.4-2-6.6-2.6-10.2-2-6.4 2.7-7 6a6.7 6.7 0 0 0 3.8 7.7c2.4 1 3.7-3 1.2-3.9a2.4 2.4 0 0 1-1.4-2.6 3.9 3.9 0 0 1 2.7-3.1c3.6-1.3 7.4.6 10.6 2s7.8 3.1 11.7 1.9a11.2 11.2 0 0 0 7.1-6.7c2.9-7.1-1.7-14.5-7.5-18.6z"/><path d="M127 11.3a116.5 116.5 0 1 0 116.5 116.5A116.6 116.6 0 0 0 127 11.3zm0 225.7a109.2 109.2 0 1 1 109.2-109.2A109.1 109.1 0 0 1 127 237z"/><path d="M49.115 207.628L205.952 50.792l4.476 4.476L53.59 212.104z"/></symbol><symbol id="how-we-do-it" viewBox="0 0 256 256"><path d="M174.2 88.7a21.2 21.2 0 0 0-16-7.4c-6.2.2-12 2.9-16.8 6.5a53.7 53.7 0 0 0-20.2 37.2c-.1 1 1.5 1.2 1.8.2 3.3-11.7 8.7-23.1 17.6-31.5 4.3-4 9.8-7.6 15.8-8.2s11.1 2.1 14.8 6.6c7.8 9.4 7.4 22.9 3.4 33.8s-13.1 21.5-21.7 30.4c-4.8 5.1-9.8 10.1-14.3 15.4s-9.1 11-11.5 17.6c-1.1 2.7 3.1 4.1 4.5 1.9 4-5.9 7.6-11.8 12.2-17.1s9.4-10.2 14.1-15.2c9.3-9.9 18.5-20.9 22.4-34.2s2.6-26.4-6.1-36z"/><path d="M130.5 187.8c-3.4-4.5-6.4-9.1-10.3-13.2a156.9 156.9 0 0 0-12.6-11.8c-9-7.7-18.5-15.4-24.6-25.8s-7.8-20.8-3.2-31.1a30.3 30.3 0 0 1 9.5-11.8c4.2-3.1 10.4-6.1 15.6-3.5s8 9.6 10.1 14.8a122.2 122.2 0 0 1 5.8 20.1c.4 1.6 3 1.2 2.9-.4a65.4 65.4 0 0 0-4.6-20c-2.1-5.3-4.4-11.1-8.5-15.2-8.8-8.9-22.1-2.2-29 5.7a34.4 34.4 0 0 0-7.4 31.5c3.2 12.5 11.9 22.5 21.2 31 5.4 4.9 11.1 9.5 16.4 14.5s11.3 10.6 13.9 17.2c1.5 3.9 7 .8 4.8-2zM115.2 20.5a.7.7 0 0 0-1.4-.2c-1 2.7-1.3 5.8-1.8 8.6s-.9 6-1.4 9.1-.8 5.8-1.3 8.7-1.5 6.1-.5 8.7a1.6 1.6 0 0 0 2.9.4c1.5-2.2 1.3-5.6 1.6-8.2l.9-9.2c.2-2.9.4-5.8.7-8.8s.7-6.1.3-9.1zM90.8 64.3c-2.7-3.8-6.1-7.1-9.3-10.5s-6.2-6.9-9.2-10.4c-.8-.9-2 .4-1.3 1.3 2.9 3.6 5.8 7.2 8.6 10.9l4.1 5.2a60.3 60.3 0 0 0 4.4 5.6c1.3 1.3 3.9-.5 2.7-2.1zM61.2 87.8c-3.3-1-6.9-1.1-10.3-1.3l-10.6-.6-10.5-.4h-4.9c-1.9.1-3.8.4-5.6.4s-1.4 2 0 2.2 3.7.9 5.6 1.2l4.9.7 10.5 1 10.6 1a44.4 44.4 0 0 0 10.3.1c2.4-.3 2-3.7 0-4.3zm-15.9 45.3c-3-.2-6.2 1.7-8.9 2.7l-9 3.7c-5.8 2.4-11.7 4.7-17.5 7.4-1.5.7-.4 3.3 1.2 2.8 6.1-1.9 12.1-4.1 18.1-6.3l9.1-3.3c2.7-1 6.2-1.9 8.3-4a1.8 1.8 0 0 0-1.3-3zm24.4 22.3c-2.7 1.2-5 3.3-7.3 5.2l-7.3 5.7-14.3 11.5c-1.4 1.1.5 3.7 2 2.6l14.8-10.8 7.2-5.4c2.5-1.9 5.2-3.6 7.1-6a1.8 1.8 0 0 0-2.2-2.8zm24.2 32.3c-1.5.5-2.2 1.6-3.1 2.8l-2.6 4.1-5.1 8.1-10.3 16.1c-1.1 1.6 1.5 3 2.5 1.5l10.8-15.6 5.3-7.6 2.7-3.9c.9-1.3 1.8-2.5 1.6-4.1a1.4 1.4 0 0 0-1.8-1.4zm30.8 47.9c0-2.7-.1-5.5-.2-8.2-.1-5.5-.3-10.9-.5-16.3a1.8 1.8 0 0 0-3.5 0c-.2 5.4-.4 10.8-.5 16.3-.1 2.6-.2 5.3-.2 7.9s-.5 5.7.7 8.1a2.2 2.2 0 0 0 3.5 0c1.2-2.3.7-5.3.7-7.8zm49.9-14.2l-2.4-3.9c-1.5-2.5-2.9-5.1-4.2-7.7a85 85 0 0 1-6.5-16.7 1.1 1.1 0 0 0-2.2.6 147.4 147.4 0 0 0 5.3 17.5 87.5 87.5 0 0 0 3.7 8.3l2.1 4c.8 1.3 1.6 2.8 3.2 3.1a1.8 1.8 0 0 0 2.1-1.2c.4-1.6-.3-2.8-1.1-4zm49.6-34.2c-3-2-6.3-3.5-9.5-5.2s-6.3-3.5-9.4-5.5a162.4 162.4 0 0 1-18.1-12.6c-1-.8-2.4.5-1.4 1.4a214.5 214.5 0 0 0 17.5 14c3 2.2 6.1 4.3 9.3 6.2a57.3 57.3 0 0 0 10.1 5.3c2.2.8 3.3-2.4 1.5-3.6zm20.4-70.2c-3.3-.5-6.6.1-9.9.4l-9.5.5c-6.5.2-13 .5-19.4.4-.9 0-1.1 1.5-.2 1.6a161.2 161.2 0 0 0 19.6 2.3h9.9c3.3-.1 6.9 0 10.1-1s1.8-3.9-.6-4.2zm-33.3-73.2a42.3 42.3 0 0 0-6.8 5.2l-6.7 5.8-6.4 5.7a59.5 59.5 0 0 0-6.2 6.1A1.5 1.5 0 0 0 187 69a48.5 48.5 0 0 0 6.9-5l6.9-5.5 6.6-5.4a53.1 53.1 0 0 0 6.5-6c1.5-1.8-.4-4.6-2.6-3.3zm-48-31.3a121.4 121.4 0 0 0-10 25.2c-2.3 8.8-3.4 17.6-4.4 26.6-.1 1.4 2 1.4 2.2 0a131.3 131.3 0 0 1 6.4-25.4 228.4 228.4 0 0 1 9.9-24c1.3-2.7-2.6-5.1-4.1-2.4z"/><path d="M134.3 136.7c-.4 4.1-.8 8.4-2.7 12.1s-4.4 5.7-8 5.8-5.9-2.7-7.3-5.9-1.4-3.7-2.1-5.5-.9-2.1-1.3-3.2-.9-1.8-1.4-2.8-1.1-.3-1.1.3a23.4 23.4 0 0 0 .4 2.6l.9 3.3c.5 1.8 1 3.6 1.6 5.3s2.6 5.9 5.4 7.6 6.4 1.5 9.4.2a14.3 14.3 0 0 0 6.8-6.9c1.9-4.1 2.3-8.5 2.7-12.9.2-2.1-3.1-2.1-3.3 0zm12.7-18.4l-.6-.5-.3-.2h-.4a3.7 3.7 0 0 0-1.8.2h-.2l-.8.5-.2.2c-.1.2-.3.3-.3.5a2.9 2.9 0 0 0-.3 2.2 2.4 2.4 0 0 0 .6 1.1 2.6 2.6 0 0 0 1.1.7l1 .2 1.3-.4a3.1 3.1 0 0 0 1.6-1.8 2.7 2.7 0 0 0-.7-2.7zm-39.3 1.9a2.8 2.8 0 0 0-1.1-1.3 1.7 1.7 0 0 0-1.2-.4h-.8l-.8-.2a2.7 2.7 0 0 0-1.2.3 2.3 2.3 0 0 0-1.3 1.8 2.9 2.9 0 0 0 0 1.3 3.5 3.5 0 0 0 .7 1.2 2.8 2.8 0 0 0 .9.7 1.8 1.8 0 0 0 1 .4 3.1 3.1 0 0 0 2.5-.4 3.2 3.2 0 0 0 1-1 2.5 2.5 0 0 0 .4-1.4 2.1 2.1 0 0 0-.1-1z"/></symbol><symbol id="how-you-can-help" viewBox="0 0 256 256"><path d="M192.9 15.7c-2.9-4.8-9-4.1-13.8-4.2s-11 .2-16.5.4l-5.6-.4c-5.8-.3-11.7-.2-17.6-.1-12 0-23.9.2-35.9.5a340.6 340.6 0 0 0-35 2c-3.8.5-7.5 2.1-9.4 5.7s-2.2 8.4-1.8 12.5 3.5 6.6 7.7 7.5a99 99 0 0 0 16.3 1.7c11.7.5 23.4-.2 35.1-.4l36-.8 17.7-.6c5.3-.2 10.8.1 16-.9a10.8 10.8 0 0 0 8.9-9.2c.6-4.2.2-10-2.1-13.7zm-3.5 13c-.8 4.5-5.5 4.6-9.3 4.7-20.2.7-40.5 1.2-60.8 2.3-9.8.6-19.6 1.1-29.5 1.1a144.6 144.6 0 0 1-14.7-.7c-2.4-.2-4.8-.5-7.1-.9s-5.3-.5-6.3-3.3-.9-9.7 2-12.1 9.1-1.9 12.8-2.1c10.2-.6 20.4-1.1 30.5-1.8s22.4-.7 33.6-.7h16.7a1.8 1.8 0 0 0 1.5.7l15.1.8h7c2.2 0 5.4-.5 7 1.5s1.9 7.6 1.5 10.5z"/><path d="M72.8 28.6v-2.2c0-1.4-.1-2.9-.1-4.3a1.8 1.8 0 0 0-1.7-1.7c-1 0-1.5.7-1.6 1.7s-.3 2.9-.4 4.3a15.5 15.5 0 0 1-.1 2.2 10.3 10.3 0 0 0 .1 2.5 1.9 1.9 0 0 0 3.6 0 6.9 6.9 0 0 0 .2-2.5zm5.1-.1c-.2-.7-.3-1.5-.5-2.3v-.5c0-.1-.1-.2-.1-.3 0-.4-.1-.8-.1-1.2a10.9 10.9 0 0 0-.3-2.6 1.6 1.6 0 0 0-1.4-1.1 1.6 1.6 0 0 0-1.4 1.1 8.6 8.6 0 0 0-.3 2.8v2.3l.3 2.7.3 1.1a2 2 0 0 0 1.6 1.6 1.4 1.4 0 0 0 1.4-.3 2.4 2.4 0 0 0 .7-1.8 7.7 7.7 0 0 0-.2-1.5zm6.8 0c-.1-.8-.3-1.6-.5-2.5L83 21.1c-.2-.8-1.3-.6-1.4.2s-.2 3.4-.4 5.1a21.8 21.8 0 0 0-.1 2.5c-.1 1.3-.3 2.7 1 3.5a2.1 2.1 0 0 0 2.3-.3c1.1-.9.6-2.4.3-3.6zm6.3 0a18.4 18.4 0 0 1-.5-2.5c-.2-.8-.5-1.6-.7-2.4a19.7 19.7 0 0 1-.7-2.6c0-.3-.5-.2-.6.1a12.4 12.4 0 0 1-.3 2.7c-.1.9-.3 1.7-.4 2.6s-.1 1.7-.2 2.5a2.9 2.9 0 0 0 0 1.6 1.8 1.8 0 0 0 2 1.5 2 2 0 0 0 1.7-2 8 8 0 0 0-.3-1.5zm6 .8a28.7 28.7 0 0 0-.5-3.1 12.8 12.8 0 0 0-.5-2.7 10.3 10.3 0 0 0-.4-1.4l-.4-.5a1.4 1.4 0 0 0-.2-.6.4.4 0 0 0-.7 0l-.3.6-.3.5a10.3 10.3 0 0 0-.4 1.4 12.8 12.8 0 0 0-.5 2.7 28.7 28.7 0 0 0-.5 3.1c0 .5-.1 1-.1 1.5a3.1 3.1 0 0 0 .8 2.4 2.2 2.2 0 0 0 3.2 0 3.2 3.2 0 0 0 .9-2.4c0-.5-.1-1-.1-1.5zm7.6-.9a23.4 23.4 0 0 0-.4-2.6l-.3-2.1a5.1 5.1 0 0 0-1-2.4 1.4 1.4 0 0 0-2.3.3 2.1 2.1 0 0 0-.4 1.5 4.1 4.1 0 0 0-.1 1.1 14.8 14.8 0 0 0-.1 2.1 14.8 14.8 0 0 0-.1 2.1c.1 1.1 0 2.4.9 3.2a2.1 2.1 0 0 0 3.1 0 2.8 2.8 0 0 0 .8-2.1c0-.4-.1-.8-.1-1.1zm6.8.9a4.3 4.3 0 0 0-.2-1.1 18.9 18.9 0 0 0-.5-2.3 9.8 9.8 0 0 0-.6-2.3l-.6-2.3a.4.4 0 0 0-.7.1 18.5 18.5 0 0 1-.4 2.3 19.7 19.7 0 0 0-.3 2.4c-.1.8-.1 1.6-.2 2.4v1.1a10 10 0 0 0 .2 1.6 1.8 1.8 0 0 0 1.7 1.3c.7-.1 1.6-.6 1.7-1.3s.1-.5.1-.8a2.1 2.1 0 0 0-.2-1.1zm8-1.7c-.1-1.1-.3-2.1-.4-3.1s-.3-1.8-.4-2.6-.4-2.4-1.4-3a1.5 1.5 0 0 0-1.8.2c-.7.5-.7 1.3-.8 2s-.1.8-.1 1.2-.1 1.8-.1 2.7a24.3 24.3 0 0 0 0 2.7 4.5 4.5 0 0 0 .4 2.3 2.4 2.4 0 0 0 4.5-.6 3.7 3.7 0 0 0 .1-1.8zm7.8-1.2l-.3-.9c-.3-.7-.5-1.3-.7-1.9a12.7 12.7 0 0 1-.6-1.8c-.2-.7-.3-1.3-.5-2s-1.2-.5-1.2.2v1.9c0 .6-.2 1.2-.2 1.8l-.3 1.8a8.6 8.6 0 0 0-.2 2.3 2 2 0 0 0 .6 1.5 1.8 1.8 0 0 0 1.5.6 2.1 2.1 0 0 0 2.2-2.1 4.9 4.9 0 0 0-.3-1.4zm9-1c-.2-.8-.3-1.6-.5-2.4a5.9 5.9 0 0 0-1-2.6 1.1 1.1 0 0 0-1.8.2 5.7 5.7 0 0 0-.7 2.9 19.4 19.4 0 0 0-.2 2.4c-.1.9-.1 1.7-.2 2.5a9.1 9.1 0 0 0 .1 1.7 2.7 2.7 0 0 0 2.7 1.8c3.1-.4 1.9-4.4 1.6-6.5zm6.9.6l-.3-1.9a19.2 19.2 0 0 0-.3-2.2 4.7 4.7 0 0 0-.6-1.9 1.1 1.1 0 0 0-1.9 0 6.7 6.7 0 0 0-.5 1.9l-.3 2.2c-.1.7-.1 1.3-.2 1.9v.9a5.9 5.9 0 0 0 .2 1.4 2 2 0 0 0 2 1.6 2 2 0 0 0 1.9-1.6 5.9 5.9 0 0 0 .2-1.4 2.8 2.8 0 0 1-.2-.9zm7-.6l-.3-1.7a11 11 0 0 0-.2-1.8c-.1-.4-.1-.8-.2-1.2a3.3 3.3 0 0 0-.7-1.3 1.5 1.5 0 0 0-2.1 0 2.4 2.4 0 0 0-.7 1.3c-.1.3-.1.5-.2.8a9.9 9.9 0 0 0-.2 1.7 17 17 0 0 0-.4 2.2v.9a3 3 0 0 0 .4 1.8 2.4 2.4 0 0 0 4.1 0 4.9 4.9 0 0 0 .5-2.7zm9.4 2.1l-.3-1-.6-2.1c-.3-.7-.4-1.4-.7-2.1a8.8 8.8 0 0 0-1-2.2 1.3 1.3 0 0 0-2.3.3 8.6 8.6 0 0 0-.2 2.3 16.2 16.2 0 0 0-.1 2.2v2.2c0 .3.1.7.1 1.1a3.3 3.3 0 0 0 .4 1.4 2.1 2.1 0 0 0 1.1 1 2.4 2.4 0 0 0 2.8-.3 2.9 2.9 0 0 0 .8-2.8zm6.7-1a3.6 3.6 0 0 1-.2-1 1.1 1.1 0 0 1-.1-.5c-.1-.4-.1-.8-.2-1.2v-.3c0-.2-.1-.4-.1-.6a12 12 0 0 0-.3-2 .7.7 0 0 0-1.2-.3 6.4 6.4 0 0 0-1.1 2 6.6 6.6 0 0 0-.6 2 21.7 21.7 0 0 0-.4 2.5 7.4 7.4 0 0 0 .2 2.6 2.2 2.2 0 0 0 4.4-.5 18.7 18.7 0 0 0-.4-2.7zm7.4-2.6a6.1 6.1 0 0 0-1.4-3.3 1.3 1.3 0 0 0-1.2-.3 1.5 1.5 0 0 0-1 .9 10.1 10.1 0 0 0-.3 1.7 6.8 6.8 0 0 0-.2 1.4v-.5c-.1 1.2-.6 2.4-.3 3.6A2.1 2.1 0 0 0 171 29a2 2 0 0 0 1.1-.1 2.4 2.4 0 0 0 1.1-.9 4.9 4.9 0 0 0 .5-2.4 10.3 10.3 0 0 0-.1-1.7zm7.2 2.6a15.5 15.5 0 0 0-.4-2.1 12.9 12.9 0 0 0-.4-1.9 10.4 10.4 0 0 0-.4-1c0-.4-.1-.7-.1-1.1s-.7-.3-.9 0l-.3 1.1a3.1 3.1 0 0 0-.5 1 15.4 15.4 0 0 0-.8 1.9l-.6 2.1-.3 1a2.8 2.8 0 0 0 .8 2.8 2.4 2.4 0 0 0 1.6.7 3.3 3.3 0 0 0 1.6-.7c1.2-1.1.9-2.4.7-3.8zm2.8 10.7a2.2 2.2 0 0 0-3.7 2.2c1.9 4.5-9.9 3.6-11.9 3.6l-14.1.6c-10 .3-20-.1-30 .1l-29.5.4H73.3c-2.4-.2-6.7-2-4.7-5.2a1.3 1.3 0 0 0-2-1.5 5.7 5.7 0 0 0-.4 7.2c2 2.9 5.8 3.4 9 3.5 5 .1 10.1-.3 15.1-.3h15.3c20.6-.4 41.2-.8 61.8-.5 4.3 0 10 .8 13.9-1.5s4.5-5.8 2.3-8.6z"/><path d="M181.1 42.6c-2.7.9-1.5 5.2 1.2 4.3 1.2-.4 3.7.4 2.6 2.1s-2.4.8-3 1a69.1 69.1 0 0 1-7.9 1.6 108.4 108.4 0 0 1-15.1.5c-10.9-.2-21.7-.7-32.7-.7s-21.9.3-32.8.7l-16.4.8c-2.7.2-5.8.7-8.4-.3-1-.5-2.6-1.4-2.9-2.5s1.3-3.6 2.9-2.5 3.4-1.3 2-2.6-6-1.3-7.7 1.5.3 7.6 3.5 9.3c4.8 2.4 11.3 1 16.4.8l19.4-.8c12.5-.4 25-.5 37.5-.2s23.9 1.5 35.7-.1a57.1 57.1 0 0 0 9.1-2.1c2.4-.9 4.2-1.5 4.7-4.3.9-4.6-3.8-7.9-8.1-6.5z"/><path d="M184.4 51.2c-2.5-1.6-4.8 2.3-2.3 3.9s-1.2 1.7-1.6 1.9a8.8 8.8 0 0 1-2.8.2l-7.1.2-14.3.5-27.9.8c-18 .6-36.2.3-54.2 1.4 0-1.2 0-2.4-.1-3.6s-2.6-2.1-3-.4-.8 3.8-1.1 5.7a2.2 2.2 0 0 0 2.1 2.7c11.4.1 22.9-.5 34.4-1s22.5-.5 33.8-.8l33.8-.7c3.7-.1 8.6.3 11.3-2.8a5.4 5.4 0 0 0-1-8z"/><path d="M182.9 57.1c-3.1 1-1.8 5.8 1.4 4.9.5.7.3 1.2-.5 1.5a2.7 2.7 0 0 1-1.7.6 18 18 0 0 1-4 .3l-7 .4L156 66c-9.8.9-19.7 1.7-29.6 2.4-19.2 1.2-38.6 1.4-57.8-1.4a7.5 7.5 0 0 1 5.5-3.5c1.3-.2.9-2.3-.3-2.3a9.8 9.8 0 0 0-9.7 6.8 1.9 1.9 0 0 0 1.3 2.3c19.2 3.4 38.7 3.3 58.1 2.3 9.9-.6 19.8-1.4 29.6-1.9l14.5-.7c4.9-.3 10-.1 14.8-.8s7-2.7 7.4-6.5a5.4 5.4 0 0 0-6.9-5.6z"/><path d="M227.2 160.5c-1.6-18.6-6.1-36.7-11.6-54.5-2.8-8.9-5.9-17.8-9-26.6-2.3-6.5-4.7-13.8-10.5-18.2a13.5 13.5 0 0 0-8.6-2.8c-3.7.2-3.8 5.8 0 5.8 6.4-.2 9.8 7 11.8 12.1 3 7.8 5.6 15.8 8.3 23.7 5.4 16.3 10.1 32.9 12.6 49.8s2.6 34.1-1.3 50.7c-1.6 7-3.9 14.3-8.6 19.9s-12.9 8-20.5 9.2a685.7 685.7 0 0 1-107 9c-7.5 0-15.4.5-22.6-1.8S48.8 229 46.7 222s-2.6-15.2-3.1-22.7-1-17.7-1-26.6a337.6 337.6 0 0 1 5.2-60.2c2.7-15.3 6.4-32.8 19.5-42.7 2.1-1.7 0-5.3-2.2-3.7-12 9-17.2 23.4-20.3 37.6a326.8 326.8 0 0 0-7.3 55.7c-.8 18.7-.6 37.8 2.2 56.3 1 7 3.1 14.3 8 19.7s12.9 7.9 20.4 8.5 18 .2 26.9 0 19.5-.7 29.2-1.4c19.5-1.2 38.9-3.3 58.2-6 8.4-1.3 17.4-2 24.9-6.3s11.1-10.5 14-17.6c6.4-16.2 7.3-35 5.9-52.1z"/><path d="M66 98.6c1.3-4.7 3.3-9.3 4-14.1.2-1-1.2-2.3-2.1-1.2-3 3.7-4.5 8.5-5.8 13.1a89.6 89.6 0 0 0-3.2 15.4 91.8 91.8 0 0 0-.8 15.7c.1 5 .1 10.8 1.9 15.5.6 1.6 3.1 1.5 3.1-.4.2-4.8-.9-9.7-.9-14.6a101.3 101.3 0 0 1 .8-14.6 92.4 92.4 0 0 1 3-14.8zm29.7 117.8c-4.2.2-8.4.2-12.3-1.6a19.1 19.1 0 0 1-8.9-8.4c-2.3-4.6-2.6-9.8-2.8-14.8s-.2-10.3-1.4-15.4c-.2-1-1.8-.8-1.8.3-.3 11.2-4 24.1 2.7 34.2 5.2 7.7 16.5 13.3 25.5 9.4 1.9-.8.9-3.7-1-3.7zm39.1-78.3c-6.8-1.2-14.2 1.2-20.7-1.4s-7.6-11.2-3.4-16.7 10.2-7.8 16.6-7.7 12 3 16.8 7.5c1.5 1.5 4.3-.5 3-2.4-5.7-8.5-18-11.3-27.5-8.7s-19.8 13.9-15.1 25c2.3 5.5 7.7 8.2 13.4 8.9s14.3-1.3 20.6 2.2c10.8 6 12.1 20.5 3.9 29.1a21.8 21.8 0 0 1-17.5 6.8c-7.4-.6-13-4.9-18.6-9.3a1.8 1.8 0 0 0-2.9 2.1c5.1 10.3 19.6 14.5 30.1 11.8s19.4-12.6 19.7-23.7-7.7-21.5-18.4-23.5z"/><path d="M124 120.4c.2-4.1.5-8.2.8-12.3s1.2-8.6.9-12.7a1.6 1.6 0 0 0-3.2-.5c-1.3 3.8-1.5 8.1-2 12.1s-.9 8.1-1.3 12.2c-.8 8.4-1.2 16.7-1.3 25.1-.4 16.6 0 33.4 2.2 49.8.4 2.9 5.3 2.2 5.1-.7-1-16.4-2.2-32.6-2-49.1.1-7.9.4-15.9.8-23.9zm11.3 65.3c-.8-4.2-1.4-8.4-2-12.6a236.8 236.8 0 0 1-1.6-25.2 225.7 225.7 0 0 1 1.2-24.7c.8-8.6 2.7-17 3.6-25.5.2-2.1-2.9-2.2-3.5-.5-2.8 7.9-3.9 16.6-5 24.8a212.6 212.6 0 0 0-1.6 26.4 246.4 246.4 0 0 0 1.6 25.8c.5 4.2 1.1 8.3 1.8 12.4s1.2 8.9 3.1 12.7c1.1 2.3 4.7 1.1 4.7-1.3 0-4-1.6-8.3-2.3-12.3z"/></symbol></svg>