<svg xmlns="http://www.w3.org/2000/svg" width="24" height="24" viewBox="0 0 24 24"><path fill="#fff" d="M14.7 12A2.7 2.7 0 1 1 12 9.3a2.7 2.7 0 0 1 2.7 2.7zm3.8-3.2a22.1 22.1 0 0 1 .1 3.2 22.1 22.1 0 0 1-.1 3.2c-.1 2.2-1.1 3.2-3.3 3.3H8.8c-2.2-.1-3.2-1.1-3.3-3.3a22.1 22.1 0 0 1-.1-3.2 22.1 22.1 0 0 1 .1-3.2c.1-2.2 1.1-3.2 3.3-3.3h6.4c2.2.1 3.2 1.1 3.3 3.3zM16.1 12a4.1 4.1 0 1 0-4.1 4.1 4.1 4.1 0 0 0 4.1-4.1zm1.1-4.3a.9.9 0 0 0-.9-.9.9.9 0 0 0-1 .9.9.9 0 0 0 1 1 .9.9 0 0 0 .9-1zM24 0v24H0V0zm-4 12V8.7A4.6 4.6 0 0 0 15.3 4H8.7A4.6 4.6 0 0 0 4 8.7v6.6A4.6 4.6 0 0 0 8.7 20h6.6a4.6 4.6 0 0 0 4.7-4.7z"/></svg>