<svg xmlns="http://www.w3.org/2000/svg" width="24" height="24" viewBox="0 0 24 24"><path fill="#fff" d="M0 0v24h24V0zm17.9 17.1a1.5 1.5 0 0 0-.2.8c-.1.3-.5.3-.8.2a3.8 3.8 0 0 0-1.5 0c-.9.1-1.8 1.4-3.4 1.4s-2.5-1.3-3.4-1.4a5 5 0 0 0-1.9.1c-.2 0-.3-.2-.4-.3a1.5 1.5 0 0 0-.2-.8c-.6-.1-2.1-.3-2.1-1a.3.3 0 0 1 .3-.3c2.1-.4 3.5-2.8 3.3-3.3s-.9-.5-1.2-.6-.8-.7-.8-.9a.9.9 0 0 1 .8-.5c.3 0 .9.4 1.3.1A8.6 8.6 0 0 1 7.9 7 4.3 4.3 0 0 1 12 4.5 4.3 4.3 0 0 1 16.1 7a8.6 8.6 0 0 1 .2 3.6c.4.3.9-.1 1.3-.1s.8.2.8.6-.3.5-.8.8-1 .2-1.2.6 1.2 2.9 3.3 3.3a.3.3 0 0 1 .3.3c0 .7-1.5.9-2.1 1z"/></svg>