<svg xmlns="http://www.w3.org/2000/svg"><symbol id="facebook" viewBox="0 0 24 24"><path fill="#fff" d="M0 0v24h24V0zm16 7h-1.9c-.6 0-1.1.3-1.1.9V9h3l-.2 3H13v8h-3v-8H8V9h2V7.1c0-2 1.1-3.1 3.5-3.1H16z"/></symbol><symbol id="instagram" viewBox="0 0 24 24"><path fill="#fff" d="M14.7 12A2.7 2.7 0 1 1 12 9.3a2.7 2.7 0 0 1 2.7 2.7zm3.8-3.2a22.1 22.1 0 0 1 .1 3.2 22.1 22.1 0 0 1-.1 3.2c-.1 2.2-1.1 3.2-3.3 3.3H8.8c-2.2-.1-3.2-1.1-3.3-3.3a22.1 22.1 0 0 1-.1-3.2 22.1 22.1 0 0 1 .1-3.2c.1-2.2 1.1-3.2 3.3-3.3h6.4c2.2.1 3.2 1.1 3.3 3.3zM16.1 12a4.1 4.1 0 1 0-4.1 4.1 4.1 4.1 0 0 0 4.1-4.1zm1.1-4.3a.9.9 0 0 0-.9-.9.9.9 0 0 0-1 .9.9.9 0 0 0 1 1 .9.9 0 0 0 .9-1zM24 0v24H0V0zm-4 12V8.7A4.6 4.6 0 0 0 15.3 4H8.7A4.6 4.6 0 0 0 4 8.7v6.6A4.6 4.6 0 0 0 8.7 20h6.6a4.6 4.6 0 0 0 4.7-4.7z"/></symbol><symbol id="snapchat" viewBox="0 0 24 24"><path fill="#fff" d="M0 0v24h24V0zm17.9 17.1a1.5 1.5 0 0 0-.2.8c-.1.3-.5.3-.8.2a3.8 3.8 0 0 0-1.5 0c-.9.1-1.8 1.4-3.4 1.4s-2.5-1.3-3.4-1.4a5 5 0 0 0-1.9.1c-.2 0-.3-.2-.4-.3a1.5 1.5 0 0 0-.2-.8c-.6-.1-2.1-.3-2.1-1a.3.3 0 0 1 .3-.3c2.1-.4 3.5-2.8 3.3-3.3s-.9-.5-1.2-.6-.8-.7-.8-.9a.9.9 0 0 1 .8-.5c.3 0 .9.4 1.3.1A8.6 8.6 0 0 1 7.9 7 4.3 4.3 0 0 1 12 4.5 4.3 4.3 0 0 1 16.1 7a8.6 8.6 0 0 1 .2 3.6c.4.3.9-.1 1.3-.1s.8.2.8.6-.3.5-.8.8-1 .2-1.2.6 1.2 2.9 3.3 3.3a.3.3 0 0 1 .3.3c0 .7-1.5.9-2.1 1z"/></symbol><symbol id="twitter" viewBox="0 0 24 24"><path fill="#fff" d="M0 0v24h24V0zm18.9 9.2A9.3 9.3 0 0 1 9.5 19a8.9 8.9 0 0 1-5-1.5 7.2 7.2 0 0 0 4.9-1.3 3.4 3.4 0 0 1-3.1-2.3 2.6 2.6 0 0 0 1.5-.1 3.3 3.3 0 0 1-2.7-3.2 4.2 4.2 0 0 0 1.5.4 3.4 3.4 0 0 1-1-4.4 9.2 9.2 0 0 0 6.8 3.4 3.3 3.3 0 0 1 3.2-4A3.5 3.5 0 0 1 18 7a6 6 0 0 0 2.1-.8 3.6 3.6 0 0 1-1.5 1.9 6 6 0 0 0 1.9-.6 5.2 5.2 0 0 1-1.6 1.7z"/></symbol><symbol id="youtube" viewBox="0 0 24 24"><path fill="#fff" d="M10 9.3l5.3 2.7-5.3 2.7zM24 0v24H0V0zm-4 12c0-4.1-.3-5.7-2.9-5.9H6.9C4.3 6.3 4 7.9 4 12s.3 5.7 2.9 5.9 7.8.1 10.2 0S20 16.1 20 12z"/></symbol></svg>