<svg xmlns="http://www.w3.org/2000/svg" width="3.6in" height="3.6in" viewBox="0 0 256.3 256"><path d="M132.1 45.4a85.6 85.6 0 1 0 85.6 85.6 85.6 85.6 0 0 0-85.6-85.6zM160.4 91a8.6 8.6 0 1 1-8.6 8.6 8.6 8.6 0 0 1 8.6-8.6zm-56.8 0a8.6 8.6 0 1 1-8.6 8.6 8.6 8.6 0 0 1 8.6-8.6zm88.3 50.9a32 32 0 0 1-21.3 27.5 31.5 31.5 0 0 1-34.5-10.1 33.4 33.4 0 0 1-4-6.5 33.4 33.4 0 0 1-4 6.5 31.5 31.5 0 0 1-34.5 10.1 32 32 0 0 1-21.3-27.5 2.9 2.9 0 1 1 5.8 0 25 25 0 0 0 6.5 14.8 25.8 25.8 0 0 0 28.7 6.8c8.8-3.4 15-12.2 15.9-21.5v-.5l-9.2-6.3a8.5 8.5 0 0 1 1.1-14.6 8.4 8.4 0 0 1 11.2 3.8 8.4 8.4 0 0 1 11.2-3.8 8.4 8.4 0 0 1 1.1 14.6l-9.6 6.6v.2c.9 9.3 7.1 18.1 15.9 21.5a25.8 25.8 0 0 0 28.7-6.8 25 25 0 0 0 6.5-14.8 2.9 2.9 0 0 1 2.9-2.9 3 3 0 0 1 2.9 2.9zm-56.9.1v-.2z"/><path d="M129.2 141.5v.5a4.3 4.3 0 0 0 .1-.5zM32.6 66.3l-1.3-.3-1.4-.8a2.7 2.7 0 0 1-1.3-1.9 2.6 2.6 0 0 1 .5-1.9l10.7-13.9 1.3.3 1.4.8c.8.7 1.3 1.3 1.3 2a2.5 2.5 0 0 1-.5 1.8L40.6 56l14.7 11.2-.7 1.3-1 1.5-1.1 1.2a2.8 2.8 0 0 1-1.1.7 2 2 0 0 1-1.3-.1 5.6 5.6 0 0 1-1.5-.8l-12.3-9.5zm28.8-16.4l5 5.9-.9 1-1.4 1.3-1.3 1a2.6 2.6 0 0 1-2.4 0 5.8 5.8 0 0 1-1.3-1.1L47 43.5a1.5 1.5 0 0 1-.5-1.3 3 3 0 0 1 .5-1.4 14 14 0 0 1 2-2.6 23.8 23.8 0 0 1 2.8-2.6c2.8-2.4 5.4-3.6 7.9-3.6a7.9 7.9 0 0 1 6.2 3 7.7 7.7 0 0 1 1.7 4.1 9.3 9.3 0 0 1-.6 4.1l4.6 1a24.3 24.3 0 0 1 3.7 1 3.1 3.1 0 0 1 .2 2.5 3.3 3.3 0 0 1-1.3 2.1l-1.3.9-1.2.3h-1.3l-1.3-.4-6-2zm-1.5-5.8a3.2 3.2 0 0 0 1.4-2.1 3 3 0 0 0-.8-2.3 2.9 2.9 0 0 0-2.3-1.2 4.6 4.6 0 0 0-2.8 1.4l-.8.7-.5.6 3.9 4.6zm25.6-1.7a4.7 4.7 0 0 1-1 .9l-1.6 1.1-1.5.7a2.5 2.5 0 0 1-1.2.1 2.1 2.1 0 0 1-1.2-.5 4.9 4.9 0 0 1-1-1.3L67.4 25l1.1-.9 1.5-1 1.5-.7 1.2-.2 1.2.6a3.6 3.6 0 0 1 1 1.3zm17.1-27.1a5.9 5.9 0 0 0-4 3.1 8.2 8.2 0 0 0-.1 5.6c.7 2.2 1.7 3.8 3.3 4.6a6.2 6.2 0 0 0 5.2.5 7.9 7.9 0 0 0 2.6-1.2l1.8-1.6a4.5 4.5 0 0 1 1.4 1 4.2 4.2 0 0 1 .9 1.6 3.4 3.4 0 0 1-1 3.2 10.6 10.6 0 0 1-5 2.7 18.4 18.4 0 0 1-5.1.7 13.5 13.5 0 0 1-4.6-1.1 11.3 11.3 0 0 1-3.8-3.1 14.6 14.6 0 0 1-2.6-5.3 14 14 0 0 1-.6-5.6 13.7 13.7 0 0 1 1.4-4.6 11.9 11.9 0 0 1 3.2-3.5 13.5 13.5 0 0 1 4.5-2.2 10.9 10.9 0 0 1 5.8-.4 3.7 3.7 0 0 1 2.8 2.4 3.1 3.1 0 0 1 0 1.9 10.9 10.9 0 0 1-.8 1.5 7 7 0 0 0-2.5-.5 7.1 7.1 0 0 0-2.8.3zm12 4.2a16.1 16.1 0 0 1 .8-5.6 11.7 11.7 0 0 1 2.5-4.2 11.6 11.6 0 0 1 3.9-2.6 15.3 15.3 0 0 1 4.9-1.1 14.3 14.3 0 0 1 5.1.6 12.7 12.7 0 0 1 4.1 2.3 11.4 11.4 0 0 1 2.9 3.9 15.3 15.3 0 0 1 1.2 5.5 14.1 14.1 0 0 1-.7 5.6 11.7 11.7 0 0 1-2.5 4.2 11.6 11.6 0 0 1-3.9 2.6 13.5 13.5 0 0 1-5 1.1 14.3 14.3 0 0 1-5.1-.6 10.6 10.6 0 0 1-4.1-2.4 10.3 10.3 0 0 1-2.8-3.9 13.4 13.4 0 0 1-1.3-5.4zm7.3-.4c.1 2.5.6 4.3 1.7 5.4a4.6 4.6 0 0 0 4 1.6 5 5 0 0 0 4-1.9 9 9 0 0 0 1.2-5.6 8.6 8.6 0 0 0-1.7-5.3 4.7 4.7 0 0 0-4.1-1.6 4.9 4.9 0 0 0-3.9 1.9 8.8 8.8 0 0 0-1.2 5.5zm44.1 7.6a9.5 9.5 0 0 1-1.6 3.7 7.2 7.2 0 0 1-2.7 2.5 9.4 9.4 0 0 1-3.8 1.2 11.7 11.7 0 0 1-4.5-.3 12.8 12.8 0 0 1-4.3-1.6 10.8 10.8 0 0 1-3-2.6 8.5 8.5 0 0 1-1.4-3.4 9.5 9.5 0 0 1 .1-4.1l3.2-15h1.4a10.8 10.8 0 0 1 1.9.3l1.5.4a3.1 3.1 0 0 1 1.1.8 3.7 3.7 0 0 1 .5 1.1 10.9 10.9 0 0 1-.1 1.7l-2.6 12a3.9 3.9 0 0 0 .4 3.2 3.7 3.7 0 0 0 2.4 1.6 3.8 3.8 0 0 0 3-.5 3.9 3.9 0 0 0 1.6-2.7l3.2-14.9h1.5l1.8.2 1.5.5a3.1 3.1 0 0 1 1.1.8 1.9 1.9 0 0 1 .5 1.1 5.1 5.1 0 0 1-.1 1.7zm21.5 19.1a2.8 2.8 0 0 1-1.8 0 9 9 0 0 1-2.5-.8 12.4 12.4 0 0 1-2.3-1.7 4.2 4.2 0 0 1-.9-2.9v-9a21.7 21.7 0 0 1 .1-2.6c0-.8.1-1.7.2-2.7h-.3a35.2 35.2 0 0 1-1.8 4l-2 4-2.8 5.5-1.3-.4-1.6-.7-1.4-.8a3.4 3.4 0 0 1-.8-.9 2.4 2.4 0 0 1-.1-1.2 4.1 4.1 0 0 1 .5-1.6l9-17.9a3.6 3.6 0 0 1 2.1-.3 7.5 7.5 0 0 1 2.4.8 6.6 6.6 0 0 1 2.3 1.7 3.7 3.7 0 0 1 1 2.8v11.6l-.3 2.7h.2l1.8-4 1.9-3.9 3-5.8 1.3.4 1.6.7a3.9 3.9 0 0 1 2.1 1.8q.6.9-.3 2.7zm13.8-11.9a9.3 9.3 0 0 1 .4-1.3 6.4 6.4 0 0 1 .8-1.4 2.9 2.9 0 0 1 2-1.2 2.3 2.3 0 0 1 1.9.6l13.3 11.3a3.5 3.5 0 0 1-.3 1.2 4.2 4.2 0 0 1-.9 1.4 3.3 3.3 0 0 1-2 1.3 2.7 2.7 0 0 1-1.8-.7l-3.4-2.8-12 14.1-1.2-.7-1.5-1.1a11.3 11.3 0 0 1-1.1-1.1 3.4 3.4 0 0 1-.6-1.2 1.7 1.7 0 0 1 .1-1.2 4.2 4.2 0 0 1 .9-1.5l10-11.9zm13 39.5a9.1 9.1 0 0 1-1-1l-1.2-1.3a6.5 6.5 0 0 1-1.2-2.6c0-.8.5-1.5 1.6-2.4l4.3-3.2 1.3-3.8 1.5-4 1.7-3.9a24.5 24.5 0 0 1 1.8-3.3l1.9.3a3.7 3.7 0 0 1 1.8 1.5 4.2 4.2 0 0 1 1 2.4 5.5 5.5 0 0 1-.8 2.9l-3.3 6.7.2.2 2.4-.6 2.1-.6 2.2-.6 2.6-.7a6 6 0 0 1 1.5.9l1.1 1.2a4 4 0 0 1 .9 2.4 2.6 2.6 0 0 1-1.2 2.1l-1 .6-2.2.5-4.3.6-7.2.7zM43.9 177.9a4.7 4.7 0 0 1 1.4 1.2 8.6 8.6 0 0 1 1.4 1.8 7.4 7.4 0 0 1 1 2.7 2.5 2.5 0 0 1-.4 2.1l-2.8 3c-1 1.2-2.1 2.3-3.3 3.5l-3.3 3.5-3 3.1a2.5 2.5 0 0 1-1.2-.7 5.8 5.8 0 0 1-1.2-1.4l-.5-1.2a1.8 1.8 0 0 1-.1-1 1.6 1.6 0 0 1 .3-.8l.6-.8 1.7-1.6-3-5.1-2 .6-2 .6-.7-.7-.7-1a4.3 4.3 0 0 1-.7-2.4 1.8 1.8 0 0 1 .9-1.5l.9-.3 1-.3 2.2-.5 2.9-.7 3.2-.6 3.1-.7 2.6-.5zm-1.6 5.5l-3.1.6a33.7 33.7 0 0 0-3.4.9l2 3.4 2.4-2.5 2.2-2.2zm8.2 33.4a3 3 0 0 1-1.4-.5 5.8 5.8 0 0 1-1.5-1.3 7.2 7.2 0 0 1-1.3-1.9 3.1 3.1 0 0 1 .1-2.5l2.7-6.7c.3-.7.5-1.3.8-1.9s.6-1.3 1-2l-.2-.2-2.5 2.5-2.6 2.4-3.8 3.4-.8-.7-1.1-1a6.1 6.1 0 0 1-.7-1 3.6 3.6 0 0 1-.4-.9 1.6 1.6 0 0 1 .3-.9 2.6 2.6 0 0 1 .8-1.1l12-10.8a2.5 2.5 0 0 1 1.6.4 6.1 6.1 0 0 1 1.6 1.2 8.6 8.6 0 0 1 1.3 2 3.3 3.3 0 0 1-.1 2.4l-2.7 6.8c-.3.7-.6 1.3-.8 1.9l-1 2h.2l2.4-2.5 2.6-2.4 3.9-3.5.8.7 1.1 1a4.8 4.8 0 0 1 1.1 1.9 2.7 2.7 0 0 1-1.1 2zm9.3 8.4l-.9-.6-1.3-.9-.9-.9a2 2 0 0 1-.5-.9 1.7 1.7 0 0 1 0-1l.7-1.2 10.7-13.2 1 .5 1.3.9a3.8 3.8 0 0 1 .9.9 2 2 0 0 1 .5.9 1.2 1.2 0 0 1-.1 1 3.1 3.1 0 0 1-.7 1.2zm19.8 7a2.4 2.4 0 0 1-1.2 0 4.7 4.7 0 0 1-1.5-.6 4.9 4.9 0 0 1-1.5-1.2 1.3 1.3 0 0 1-.4-1.3c.4-2 .7-3.5.9-4.8s.5-2.2.7-3.1h-.1l-1.8 3-1.6 2.6a22 22 0 0 1-1.5 2.6l-1.7 2.9-1.1-.3-1.3-.5a5.2 5.2 0 0 1-1.7-1.5 1.7 1.7 0 0 1 .1-1.8l8.8-14a2.8 2.8 0 0 1 1.4-.2 4.9 4.9 0 0 1 2.4.7 6.5 6.5 0 0 1 2.1 1.8 3.1 3.1 0 0 1 .4 2.2q-.1.8-.3 1.8c-.1.7-.3 1.4-.4 2.2s-.3 1.4-.4 2.1-.3 1.4-.4 2h.1l3.9-3.9 3.3-3 1.3.2a5.1 5.1 0 0 1 1.5.7 5.3 5.3 0 0 1 2.1 1.6 2.3 2.3 0 0 1 .4 1.7 20.5 20.5 0 0 1-.8 1.9 29.3 29.3 0 0 1-1.2 2.8l-1.4 3.3-1.5 3.3c-.4 1-.9 2-1.3 2.9l-.9 2-1.3-.2-1.4-.6a4.4 4.4 0 0 1-1.6-1.4 1.9 1.9 0 0 1 0-1.8l2.9-5.7c.9-1.7 1.6-3 2.1-4.2h-.1a27.6 27.6 0 0 1-2.4 2.3zm21.7-6.2h1.8a7.8 7.8 0 0 1 2.2.3 9.6 9.6 0 0 1 2.7 1.2 2.6 2.6 0 0 1 1.1 1.9c.1 1.2.1 2.5.2 4.1v13.9a4 4 0 0 1-1.3.4l-1.9-.3-1.2-.4-.7-.6-.4-.8a4.1 4.1 0 0 0-.1-1.1v-2.3l-5.6-1.6-1.1 1.8-1 1.8h-1l-1.2-.2a4.1 4.1 0 0 1-2.2-1.2 1.7 1.7 0 0 1-.3-1.7l.3-.9a3.5 3.5 0 0 0 .6-.9l1.2-1.9L95 235l1.8-2.7a20.3 20.3 0 0 0 1.8-2.6l1.6-2.1zm2.6 5.1a31 31 0 0 1-1.8 2.6l-1.9 3 3.9 1.1v-6.7zm14 18a2.8 2.8 0 0 1-2.7-3.3l1.5-16.6h2.7l1.3.3a2 2 0 0 1 .9.5 2.2 2.2 0 0 1 .5.8 5.7 5.7 0 0 1 .1 1.4l-1.2 12.6 7.3.7a1.9 1.9 0 0 1 .4 1 4.9 4.9 0 0 1 .1 1.2 2.5 2.5 0 0 1-.8 1.8 2.4 2.4 0 0 1-1.5.4zm28.9-6.6l.9 6.1-1.1.4-1.5.3h-1.3a1.7 1.7 0 0 1-1-.3 1.1 1.1 0 0 1-.6-.7 2.2 2.2 0 0 1-.4-1.3l-2.3-15a1.3 1.3 0 0 1 .2-1.1 3.6 3.6 0 0 1 .9-.8l2.5-.9a13.3 13.3 0 0 1 3-.6c3-.5 5.3-.2 6.9.8a6.2 6.2 0 0 1 3 4.7 5.8 5.8 0 0 1-.5 3.5 6.7 6.7 0 0 1-2.1 2.6l2.7 2.6a13.9 13.9 0 0 1 2.1 2.2 3.2 3.2 0 0 1-2.7 2.8h-1.2l-1-.3-.8-.6-.7-.8-3.4-3.9zm1.3-4.5a3.8 3.8 0 0 0 1.9-.9 2.6 2.6 0 0 0 .4-2 2.1 2.1 0 0 0-1.1-1.7 4.6 4.6 0 0 0-2.5-.3l-.8.2-.6.2.7 4.8zm11.1-8.2a3 3 0 0 1 0-2.3 3.2 3.2 0 0 1 1.9-1.5l10-3.5a2.9 2.9 0 0 1 .7.8 5.4 5.4 0 0 1 .6 1.1 2.2 2.2 0 0 1 0 1.8 2 2 0 0 1-1.1.9l-6.4 2.3.9 2.8 6.9-2.4.7.7a5.4 5.4 0 0 1 .5 1.1 2.5 2.5 0 0 1 .1 1.9 2 2 0 0 1-1.1.9l-5.6 1.9 1.1 3.2 7.8-2.7a2.9 2.9 0 0 1 .7.8l.6 1.1a2.9 2.9 0 0 1 .1 1.8 2 2 0 0 1-1.2 1l-8.9 3.1a2.6 2.6 0 0 1-2.3-.1 2.8 2.8 0 0 1-1.5-1.8zm26-1.3l-2.7.4a8.7 8.7 0 0 1-2.3-.1 5 5 0 0 1-2-.8 7.7 7.7 0 0 1-1.6-1.9 5.3 5.3 0 0 1-.3-4.9 9.6 9.6 0 0 1 4.4-4.3 15.8 15.8 0 0 1 2.3-1.1 10.4 10.4 0 0 1 2.1-.5 4.7 4.7 0 0 1 1.7.3 2.1 2.1 0 0 1 1.1 1 2.7 2.7 0 0 1 .4 1.4 5.8 5.8 0 0 1-.3 1.4 8.2 8.2 0 0 0-2.1.2 12.2 12.2 0 0 0-2.4 1 5.2 5.2 0 0 0-1.7 1.4 1.1 1.1 0 0 0-.1 1.2.9.9 0 0 0 .8.5 3.1 3.1 0 0 0 1.3-.1l1.8-.4a13.6 13.6 0 0 1 5.3-.1 5.2 5.2 0 0 1 3.4 2.8 5.3 5.3 0 0 1 .3 4.9c-.7 1.7-2.3 3.2-4.7 4.6a9.7 9.7 0 0 1-2.6 1.1 6.3 6.3 0 0 1-2.2.5 5 5 0 0 1-1.9-.3 2.8 2.8 0 0 1-1.3-1.1 2.6 2.6 0 0 1-.3-1.7 4.7 4.7 0 0 1 .6-1.5 5.3 5.3 0 0 0 2.5 0 7.6 7.6 0 0 0 2.8-.9 4.3 4.3 0 0 0 1.7-1.5 1.5 1.5 0 0 0 0-1.3 1 1 0 0 0-1-.6 4.7 4.7 0 0 0-1.6.1zm14.8-19.8a4.8 4.8 0 0 0-2 3.6 6.5 6.5 0 0 0 1.7 4.2 6.4 6.4 0 0 0 3.9 2.4 5.2 5.2 0 0 0 4-1.4 5.7 5.7 0 0 0 1.5-1.7 14 14 0 0 0 .9-1.7 3.1 3.1 0 0 1 1.3.3 3.1 3.1 0 0 1 1.2.9 2.6 2.6 0 0 1 .3 2.7 9.3 9.3 0 0 1-2.9 3.5 14.1 14.1 0 0 1-3.5 2.1 9.9 9.9 0 0 1-3.8.7 8.7 8.7 0 0 1-3.7-1.1 11.1 11.1 0 0 1-3.7-3 12.2 12.2 0 0 1-2.2-4 10.1 10.1 0 0 1-.4-3.8 10.9 10.9 0 0 1 1.2-3.6 13 13 0 0 1 2.6-3.1c1.6-1.2 2.9-2 4.2-2.1a2.9 2.9 0 0 1 2.8.8 2.2 2.2 0 0 1 .6 1.4 3.2 3.2 0 0 1-.1 1.4l-2 .4a6.2 6.2 0 0 0-1.9 1.1zm24.1-14a8.4 8.4 0 0 1 2.9 5.4 8.9 8.9 0 0 1-.6 3.1 11.3 11.3 0 0 1-4.6 5.7 7.9 7.9 0 0 1-2.9 1.1 7.3 7.3 0 0 1-5.9-1.8l-9.5-7.8.6-1 .8-1.2a3.8 3.8 0 0 1 .9-.9 2 2 0 0 1 .9-.5 1.1 1.1 0 0 1 1 .1 2.5 2.5 0 0 1 1.2.7l7.6 6.2a4 4 0 0 0 2.5.9 2.8 2.8 0 0 0 2-1.2 3 3 0 0 0 .8-2.3 3.6 3.6 0 0 0-1.4-2.2l-9.5-7.7.6-1 .9-1.2a3.8 3.8 0 0 1 .9-.9 2 2 0 0 1 .9-.5h1l1.2.7zm-5-9.6a2.7 2.7 0 0 1-1.6-1.7 3.2 3.2 0 0 1 .3-2.3l5.1-9.4h1a2.1 2.1 0 0 1 1.1.4c.8.4 1.2.8 1.3 1.3a1.6 1.6 0 0 1-.2 1.5l-3.2 6 2.7 1.4 3.4-6.3h1a2.1 2.1 0 0 1 1.1.4c.8.4 1.2.8 1.3 1.3a1.5 1.5 0 0 1-.2 1.4l-2.8 5.3 3 1.6 3.9-7.4h1l1.2.5a2.1 2.1 0 0 1 1.3 1.3 1.5 1.5 0 0 1-.2 1.4l-4.4 8.4a2.9 2.9 0 0 1-4.1 1.2z"/></svg>